<?xml version="1.0" encoding="utf-8"?>
<!-- Generator: Adobe Illustrator 21.0.2, SVG Export Plug-In . SVG Version: 6.00 Build 0)  -->
<svg version="1.1" id="Layer_1" xmlns="http://www.w3.org/2000/svg" xmlns:xlink="http://www.w3.org/1999/xlink" x="0px" y="0px"
	 viewBox="0 0 307.4 325.2" style="enable-background:new 0 0 307.4 325.2;" xml:space="preserve">
<style type="text/css">
	.st0{fill:#FFFFFF;}
</style>
<g>
	<path class="st0" d="M299.1,168.4c0-13.1-6.2-21.9-12.9-28.6c-3.2-3.2-6.5-9.3-10.1-13.8c0.3,0,0.5,0,0.7,0
		c9.4,0,10.7,13.8,22.3,14.1c1.9,0,3-0.4,3.6-1.3c1.2-1.6,0.4-4.7-1.5-8.3c-2.7-13.2-7-25.7-12.7-37.4
		c-25.6-52.6-79.6-88.8-142-88.8c-10.1,0-19.9,0.9-29.5,2.8c0.8,1.5,12.7,2.4,18.9,1.2c9.4-1.9,58.1,11.4,65.8,21.6
		c7.7,10.2,3.9,11.4-7.5,9.3c-11.4-2-4.4,14.3-4.4,21.2c0,5.1,5.2,11,10.4,13.7l0,0c1.9,1,3.8,1.5,5.4,1.5c1,0,1.7-0.1,2.2-0.4
		c2.9-1.5-0.8-6.9-3.9-12.2c-3.7-6.2-3.8-11.2,3-4.4c6.8,6.8,8.2,10.1,10.8,13.7c2.2,3,17.5,19.2,21.7,32.4c1.3,4.2,2,8.6,2,13
		c0,0.9,0,1.8-0.1,2.6c6.3-1.1,15-5.8,5.6-15.2c-10.9-10.9-3.7-24.6,3.2-24.6c6.9,0,10.4,7.9,6.6,11.7c-3.9,3.9-6.9,18,4,18
		c5.8,0,5.2,5.8,5.4,10.6c-1.1,0.4-2.2,1.1-3.3,2.2c-8,8-6,6-22.7,5.3c-0.2,0.8-0.4,1.6-0.6,2.3c0,0.1,0,0.1-0.1,0.2
		c-0.4,1.1-0.7,2.1-1.1,3c-0.6,1.6-1.3,3.1-2.2,4.6c1.3,2.4,2.4,5,3.2,7.7l0,0c1.1,3.6,1.7,7.3,1.9,11c4.9,0.6,9.4,2.7,13.1,6.1
		c4.6,4.3,7.2,10.4,7.2,16.7c0,1.3-0.1,2.5-0.4,3.8c-0.8,4.9-3.3,9.5-6.9,12.9c-1.4,1.3-2.9,2.4-4.5,3.3c-0.1,0.1-0.3,0.1-0.4,0.2
		c-3.3,1.8-7,2.7-10.8,2.7h-0.3c-0.4,0-0.7,0-1,0c-9.7-0.4-18.7-3.9-26.1-10.1c-0.1-0.1-0.2-0.2-0.3-0.3l-0.1-0.1
		c-6.3-5.3-10.9-12.3-13.4-20.2c-0.5-1.7-0.9-7.6-2.4-9.8c-1.6-2.4-4.2-1-4.2-1c-0.8,1.6-1.7,3.1-2.4,4.6
		c-5.4,11.8-2.8,6.4,5.2,32.6c8.2,26.9,28.3,28.6,27.2,22.5v-3c0-3.6,1.4-7.1,4-9.7c2.6-2.6,6-4,9.7-4h4.8c6.3,0,11.9,2.3,16.4,6.8
		l0,0c4.4,4.5,6.8,10.1,6.8,16.4c0,6.3-2.3,12-6.8,16.4c-0.9,0.9-1.9,1.7-2.9,2.5c-3.2,8.8-6.9,23.4-7.8,29.9
		c-0.3,2.1,2.6,1.8,2.6,1.8c9.1-2.1,2.9-2.5,12.5-12.1c4.4-4.4,10.9-14.9,17-26c-0.4-0.9-0.5-2-0.7-2.9V237
		c-0.7-2.8-0.5-5.6,0.4-8.2c-0.6-2-1-4.1-0.8-6.3c0.2-5.1,2.3-9.6,6.1-13c2.7-2.5,5.9-4.1,9.4-4.7
		C293.3,195.9,299.1,179.7,299.1,168.4z"/>
	<path class="st0" d="M105.1,44.3c0,3.1,1.9,12.5-4.2,13.2c-6.2,0.6,5.5,14.8,8.9,11.4c0.6-0.6,7.4-5.7,7.4-15.2s0.6-14.5-3.7-14.5
		C109.1,39.3,105.1,41.2,105.1,44.3z"/>
	<path class="st0" d="M130.9,25.4c-5.9,5.9-13.1,0-8.8,6.9s12.9,3.6,9.4,10.1c-2.8,5.3-11.5,20.4-5.3,26.5c1.3,1.3,3.3,2.2,6.2,2.5
		c0.5,0.1,1.4-0.9,2.6-2.5c3.9-5,10.9-15.8,17.8-15.8c9,0,11.2-17.4,5.6-23C152.8,24.5,136.8,19.5,130.9,25.4z"/>
	<path class="st0" d="M161.7,66c1.8,0,6-6.5,3-6.5s-7.6,0.1-7.6,3.3C157.1,65.9,157.8,66,161.7,66z"/>
	<path class="st0" d="M139.9,250.9c-4.5-3.4-14.6-6.3-21.5-7.9c-3.4-0.7-5.2-1.6-6.1-2c-2-0.9-4-4.2-9.1-1.8c-1.9,0.9-4.8,3.4-6.4,5
		c-4.5,4.5-10.2,6.8-16.5,6.8s-12-2.4-16.4-6.8c-4.5-4.5-6.8-10.1-6.8-16.4c0-6.3,2.4-12,6.8-16.4c1.4-1.4,3.1-1.1,3.7-3
		c0.5-2.4-2.8-4-3.4-4.6c-10.5-10.5-15.2-13.5-28.1-13.5c-7.7,0-14.4,12.9-11.9,15.7c1.1,0.8,2,0.2,2.2,0.1c0.1,0,0.1-0.1,0.2-0.1
		l0.7-0.3c1.6-0.8,3.3-1.1,5.1-1.1c1.3,0,2.6,0.2,3.8,0.6l0.7,0.3c0.1,0,0.2,0.1,0.3,0.1c3.4,1.2,6.1,3.7,7.6,6.9
		c1.6,3.3,1.8,6.9,0.6,10.4l-6.6,18.8c-0.2,0.7-0.5,1.3-0.8,1.9c-0.2,0.4-0.4,0.7-0.6,1.1c-0.2,0.3-0.4,0.6-0.6,0.9
		c-0.1,0.1-0.3,0.3-0.3,0.4c-2,5.6,14.6,8.2,14.6,14.3c0,6.8,8.3,25.4,14.1,37.4c3,6.3,5.3,10.7,5.3,10.7c4,8.2,22.1,20.8,17,4.5
		c-0.6-1.8-0.9-3.3-1-4.5c-1.2-10.8,10.4-7.1,14.8-11.6c4.9-4.9,8.6-10.1,22.1-13.1s-3.9-16.3,14.2-24.7
		C143.4,256.1,143.1,253.3,139.9,250.9z"/>
	<path class="st0" d="M25.2,190.1L25.2,190.1C25.3,190.1,25.3,190.1,25.2,190.1c-0.4-1.1-5.1-11,0.1-19.8c5.5-9.2-10.2-3.2-7.8-8.2
		c2.4-4.9,12.2-12.5,4.4-14s-17.5-0.6-10.8-10.9s11-14,24.7-7.7c3.7,1.7,6.9,2.4,9.6,2.5v-14.3c0-0.1,0-0.2,0-0.3
		c0-4.3,0.7-8.6,2-12.8v-0.1c0.6-1.8,1.2-3.5,2-5.1c4.4-9.6,12.1-17.2,21.6-21.6c2-0.9,4-1.7,6.1-2.3C68.8,71.8,68,57.4,75.8,55
		c8.6-2.6,21.5,1.1,21.5-5.8S85.7,29,88.9,25.8c3.2-3.2,23.2-12.5,15.9-15.9c-0.1,0-0.2-0.1-0.3-0.1c-9.9,2.7-19.5,6.4-28.6,11
		c0.3,3.5,0.1,7.1-2.5,9.7C68.7,35.2,12,73.1,12,98.9s-7.9,14.2-7.9,25.4C4,135.7,8.4,189.8,25.2,190.1z"/>
	<path class="st0" d="M197.8,149.7c5.3,0,9.6,4.3,9.6,9.5c0,3.3,0.5,6.5,1.4,9.6c1.8,5.8,5.2,10.9,9.8,14.8c0.1,0.1,0.2,0.2,0.3,0.3
		c5.2,4.4,11.9,7.1,19.2,7.4c0.1,0,0.3,0,0.4,0h0.3c1.9,0,3.7-0.5,5.3-1.3l0,0c0.9-0.5,1.7-1,2.4-1.7c1.7-1.6,3-3.8,3.4-6.3
		c0.1-0.6,0.2-1.2,0.2-1.9c0-3.2-1.4-6.1-3.5-8.2c-2-1.9-4.7-3-7.7-3h0.5c-5.3,0-9.5-4.3-9.5-9.6c0-3.3-0.5-6.5-1.4-9.5
		c-1.3-4.2-3.4-8-6.2-11.2c2.3-2.7,4.1-5.7,5.4-9c0.2-0.4,0.3-0.8,0.4-1.2c0.1-0.3,0.2-0.7,0.4-1c0.9-3,1.4-6.2,1.4-9.6
		c0-0.3,0-0.6,0-0.9c0-0.1,0-0.1,0-0.1c0-0.2,0-0.3,0-0.5c0-0.1,0-0.2,0-0.3c0-0.4-0.1-0.9-0.1-1.3c0-0.1,0-0.1,0-0.2s0-0.3,0-0.4
		c0-0.3-0.1-0.7-0.1-1V113l0,0c0-0.3-0.1-0.5-0.1-0.7s-0.1-0.5-0.1-0.7c0,0,0,0,0-0.1c0,0,0,0,0-0.1v-0.1c-0.1-0.5-0.2-1-0.3-1.5
		c-0.1-0.2-0.1-0.4-0.2-0.6c-0.1-0.3-0.2-0.6-0.3-0.9c-0.1-0.4-0.3-0.8-0.4-1.2c-0.1-0.4-0.3-0.7-0.4-1.1c-0.1-0.3-0.2-0.6-0.4-0.8
		l0,0c0-0.1-0.1-0.1-0.1-0.2s-0.1-0.1-0.1-0.2c-0.1-0.2-0.2-0.4-0.3-0.6c-0.1-0.3-0.3-0.7-0.5-1c-0.1-0.3-0.3-0.6-0.4-0.8
		c-0.1-0.3-0.3-0.5-0.5-0.8c-0.2-0.4-0.4-0.7-0.7-1.1c-0.2-0.3-0.4-0.6-0.6-0.9c-0.3-0.4-0.5-0.7-0.8-1.1c-0.2-0.3-0.5-0.7-0.8-1
		c-0.2-0.2-0.3-0.4-0.5-0.6c-0.1-0.1-0.2-0.2-0.3-0.3c0,0,0-0.1-0.1-0.1c-0.2-0.2-0.4-0.5-0.7-0.7c-0.3-0.3-0.7-0.7-1-1
		c-0.2-0.2-0.5-0.5-0.8-0.7c-0.1-0.1-0.2-0.2-0.3-0.3c-0.3-0.2-0.5-0.5-0.8-0.7c-0.3-0.3-0.7-0.5-1-0.8l0,0c-0.3-0.3-0.7-0.5-1-0.7
		l0,0c0,0-0.1,0-0.1-0.1c-0.3-0.2-0.5-0.4-0.8-0.5c-0.7-0.4-1.4-0.9-2.1-1.2c-0.2-0.1-0.4-0.2-0.6-0.3c0,0-0.1,0-0.1-0.1
		c-0.2-0.1-0.5-0.2-0.7-0.4c-0.2-0.1-0.5-0.2-0.7-0.3c-0.2-0.1-0.4-0.2-0.6-0.3c-1.3-0.5-2.6-1-4-1.3c-0.3-0.1-0.7-0.2-1-0.3
		c-0.4-0.1-0.8-0.2-1.2-0.3c-0.1,0-0.1,0-0.2,0c-0.4-0.1-0.7-0.1-1.1-0.2c-0.1,0-0.3,0-0.4-0.1c-0.2,0-0.4-0.1-0.6-0.1
		s-0.4,0-0.6-0.1l0,0l0,0c-0.2,0-0.4,0-0.6-0.1c-0.2,0-0.4,0-0.6,0h-0.1c-0.1,0-0.1,0-0.2,0s-0.3,0-0.4,0c-0.4,0-0.9,0-1.3,0H89.1
		c-4.7,0-9.2,1-13.3,2.9c-7,3.2-12.6,8.8-15.8,15.8c-0.6,1.2-1,2.4-1.4,3.7c-0.9,3-1.4,6.2-1.4,9.5l0,0v41.5c0,3.3,0.5,6.5,1.4,9.6
		c0.4,1.3,0.9,2.5,1.4,3.7c3.2,7,8.8,12.6,15.8,15.8c4,1.9,8.5,2.9,13.3,2.9h15.8c3.3,0,6.5-0.5,9.6-1.5c0.5-0.1,1-0.3,1.5-0.5
		c4.5-1.6,8.5-4.2,11.7-7.6c0.2-0.2,0.4-0.4,0.5-0.5c0.1-0.2,0.3-0.3,0.4-0.5c0.1-0.1,0.2-0.2,0.3-0.3c0.4-0.4,0.7-0.8,1-1.3
		c0.1-0.1,0.1-0.2,0.2-0.3c0.3-0.4,0.6-0.8,0.9-1.2c0.1-0.1,0.2-0.3,0.3-0.4c0.2-0.4,0.5-0.7,0.7-1.1c0.1-0.1,0.2-0.3,0.2-0.4
		c0.6-1,1.2-2.1,1.7-3.2c0-0.1,0.1-0.2,0.1-0.3c0.2-0.5,0.4-1,0.6-1.5c0-0.1,0.1-0.1,0.1-0.2c0.2-0.6,0.4-1.2,0.6-1.8
		c0.9-3,1.4-6.2,1.4-9.6v-1.6c0-0.8-0.1-1.7-0.3-2.5v-0.1c-0.1-0.5-0.3-1-0.4-1.4c-0.5-1.2-1.1-2.4-2-3.4c-0.2-0.2-0.4-0.4-0.5-0.6
		c-1-1.1-2.3-1.9-3.7-2.5c-1.3-0.5-2.7-0.8-4.2-0.8c-3.1,0-5.9,1.3-7.9,3.3c-1.1,1.1-2,2.5-2.6,3.9c-0.4,1.1-0.7,2.4-0.7,3.7
		c0,0.1,0,0.2,0,0.3c0,0.1,0,0.2,0,0.3v1.4c0,5.3-4.3,9.6-9.6,9.6H89c-5.3,0-9.6-4.3-9.6-9.6v-11l0,0v-30.5c0-5.3,4.3-9.5,9.5-9.5
		h108.7c0.1,0,0.3,0,0.4,0s0.3,0,0.4,0s0.1,0,0.1,0c0.3,0,0.5,0.1,0.8,0.1s0.5,0.1,0.8,0.2h0.1c0.1,0,0.3,0.1,0.4,0.1
		s0.2,0.1,0.4,0.1c0.2,0.1,0.5,0.2,0.7,0.3c0.3,0.1,0.5,0.3,0.8,0.4c0.5,0.3,0.9,0.6,1.3,1c0.1,0.1,0.3,0.2,0.4,0.3
		c0.1,0.1,0.1,0.1,0.2,0.2l0.2,0.2c0.2,0.2,0.5,0.5,0.7,0.8c0.1,0.1,0.2,0.3,0.3,0.4c0,0,0,0,0,0.1c0.2,0.3,0.3,0.5,0.5,0.8
		c0.1,0.2,0.2,0.3,0.2,0.5c0.1,0.1,0.1,0.3,0.2,0.5c0.1,0.1,0.1,0.3,0.2,0.5s0.1,0.3,0.2,0.5c0,0.1,0.1,0.3,0.1,0.4l0,0v0.1
		c0,0.2,0.1,0.3,0.1,0.5c0,0.1,0,0.3,0.1,0.4v0.1c0,0.4,0.1,0.7,0.1,1.1c0,0.2,0,0.4,0,0.5c0,0.3,0,0.5-0.1,0.8c0,0.1,0,0.2-0.1,0.3
		c0,0.1,0,0.2-0.1,0.3c0,0.1-0.1,0.3-0.1,0.4c-0.1,0.2-0.1,0.4-0.2,0.6c0,0,0,0,0,0.1c-0.1,0.2-0.1,0.4-0.2,0.6s-0.1,0.3-0.2,0.5
		c0,0.1-0.1,0.1-0.1,0.2l0,0c-0.1,0.2-0.2,0.3-0.3,0.5c-0.1,0.1-0.1,0.2-0.2,0.3c0,0,0,0,0,0.1c-0.5,0.7-1,1.4-1.7,2
		c-0.2,0.2-0.4,0.4-0.6,0.5s-0.4,0.3-0.6,0.4c-0.1,0.1-0.2,0.1-0.3,0.2c-0.2,0.1-0.4,0.2-0.6,0.3l0,0c-0.2,0.1-0.4,0.2-0.6,0.3
		c-0.1,0.1-0.3,0.1-0.4,0.1s-0.3,0.1-0.4,0.1c-0.3,0.1-0.6,0.2-0.9,0.2c-0.3,0.1-0.5,0.1-0.8,0.1h-0.1c-0.2,0-0.3,0-0.5,0
		c-0.1,0-0.2,0-0.4,0h-32c-6.2,0-11.2,5-11.2,11.2s5,11.2,11.2,11.2h1.5l0,0h30.5V149.7z"/>
	<path class="st0" d="M34.3,217.4c-0.1-0.1-0.1-0.2-0.2-0.3c-0.2-0.3-0.5-0.5-0.9-0.6c-0.5-0.2-0.7-0.3-0.7-0.3l0,0
		c0,0-0.1,0-0.2,0.1c-0.1,0.1-0.3,0.1-0.5,0.3c-0.5,0.2-0.8,0.6-1,1.1l-1.3,3.7l-3.7,10.4l-0.5-1.3l-4.5-12.8l0,0c0,0,0,0,0-0.1
		c0,0,0,0,0-0.1l0,0l0,0v-0.1c-0.1-0.2-0.2-0.3-0.3-0.4c-0.1-0.1-0.3-0.3-0.5-0.3h-0.1h-0.1h-0.1l0,0l0,0l0,0l0,0l0,0
		c-0.1,0-0.1,0-0.1,0l0,0l0,0c-0.1,0-0.1,0-0.1,0h-0.1l0,0h-0.1H19c-0.1,0-0.1,0-0.1,0l0,0l0,0l0,0h-0.1h-0.1h-0.1l0,0
		c0,0,0,0-0.1,0h-0.1l0,0c-0.2,0.1-0.3,0.2-0.5,0.4c-0.1,0.1-0.2,0.3-0.3,0.4v0.1l0,0l0,0l0,0l0,0l0,0l0,0c0,0,0,0,0,0.1v0.1l0,0
		l-4.9,14.1l-4.9-14.1c-0.2-0.5-0.5-0.8-1-1.1c-0.3-0.1-0.5-0.2-0.8-0.2c-0.2,0-0.4,0-0.6,0.1c-0.5,0.2-0.8,0.5-1.1,1
		c-0.2,0.5-0.2,1-0.1,1.4l6.7,19.2l0,0c0,0.1,0.1,0.1,0.1,0.2c0,0,0,0,0,0.1s0.1,0.1,0.1,0.2l0,0c0.1,0.1,0.1,0.1,0.2,0.2l0,0
		c0.1,0.1,0.1,0.1,0.2,0.2l0,0l0,0c0.1,0,0.1,0.1,0.2,0.1l0,0c0.1,0,0.1,0.1,0.2,0.1l0,0l0,0c0.1,0,0.1,0,0.2,0.1h0.1l0,0
		c0.1,0,0.2,0,0.3,0s0.2,0,0.3,0l0,0c0,0,0,0,0.1,0s0.1,0,0.2,0l0,0l0,0c0.1,0,0.1-0.1,0.2-0.1l0,0c0.1,0,0.1-0.1,0.2-0.1h0.1
		c0.1-0.1,0.1-0.1,0.2-0.2l0,0l0,0c0.1-0.1,0.1-0.1,0.2-0.2l0,0l0,0l0,0l0,0c0-0.1,0.1-0.1,0.1-0.2c0,0,0,0,0-0.1s0.1-0.2,0.1-0.2
		l0,0l4.9-14.1l4.9,14.1l0,0c0,0.1,0.1,0.1,0.1,0.2c0,0,0,0,0,0.1s0.1,0.1,0.1,0.2l0,0c0,0.1,0.1,0.1,0.1,0.2c0,0,0,0,0.1,0
		c0.1,0.1,0.1,0.1,0.2,0.2l0,0l0,0c0.1,0,0.1,0.1,0.2,0.1l0,0c0.1,0,0.1,0.1,0.2,0.1l0,0c0.1,0,0.1,0,0.2,0.1h0.1c0.1,0,0.2,0,0.3,0
		s0.2,0,0.3,0l0,0l0,0c0,0,0,0,0.1,0h0.1h0.1l0,0l0,0c0.1,0,0.1-0.1,0.2-0.1l0,0c0.1,0,0.1-0.1,0.2-0.1h0.1c0.1-0.1,0.1-0.1,0.2-0.1
		l0,0l0,0c0.1-0.1,0.1-0.1,0.1-0.2c0,0,0,0,0-0.1c0.1-0.1,0.1-0.1,0.1-0.2c0,0,0,0,0-0.1s0.1-0.2,0.1-0.2l0,0l0,0l6.7-19.2
		c0-0.1,0.1-0.2,0.1-0.4c0-0.1,0-0.2,0-0.4s0-0.3-0.1-0.5C34.4,217.5,34.4,217.4,34.3,217.4z"/>
	<path class="st0" d="M88.5,235.9c2.2-2.2,3.4-4.9,3.4-8.1c0-0.8-0.1-1.5-0.2-2.2c-0.4-2.2-1.5-4.2-3.2-5.9c-2.2-2.2-5-3.4-8.1-3.4
		c-0.2,0-0.4,0-0.5,0c-2.9,0.1-5.5,1.2-7.6,3.3c-2.2,2.2-3.4,5-3.4,8.1c0,3.2,1.1,5.9,3.4,8.1c2.2,2.2,4.9,3.4,8.1,3.4
		S86.3,238.1,88.5,235.9z M72.7,227.7c0-2.1,0.7-3.9,2.3-5.4c1.5-1.5,3.3-2.3,5.4-2.3c2.1,0,3.9,0.7,5.5,2.3
		c1.5,1.5,2.3,3.3,2.3,5.4c0,2.1-0.7,3.9-2.3,5.4c-1.5,1.5-3.3,2.3-5.5,2.3c-2.1,0-3.9-0.7-5.4-2.3
		C73.4,231.7,72.7,229.9,72.7,227.7z"/>
	<path class="st0" d="M143.2,226.7c0.9-1.1,1.3-2.4,1.3-3.8c0-1.8-0.7-3.4-2.1-4.7c-1.4-1.3-3.1-1.9-5-1.9h-6.6
		c-0.5,0-1,0.2-1.3,0.6c-0.4,0.4-0.5,0.8-0.5,1.3v19.1c0,0.5,0.2,1,0.5,1.3c0.4,0.4,0.8,0.5,1.3,0.5s1-0.2,1.3-0.5
		c0.4-0.4,0.6-0.8,0.6-1.3v-7.6h3.3l4.2,8.6c0.3,0.7,0.9,1,1.7,1c0.3,0,0.6-0.1,0.8-0.2c0.5-0.2,0.8-0.6,0.9-1.1
		c0.2-0.5,0.1-1-0.1-1.4l-3.6-7.4C141.3,228.7,142.4,227.9,143.2,226.7z M139.8,224.9c-0.6,0.6-1.4,0.8-2.3,0.9h-4.9V220h4.7
		c0.9,0,1.7,0.3,2.4,0.8c0.7,0.6,1,1.3,1,2.1C140.8,223.7,140.5,224.4,139.8,224.9z"/>
	<path class="st0" d="M193.8,235.4h-8.5v-17.3c0-0.5-0.2-1-0.6-1.3c-0.4-0.4-0.8-0.6-1.3-0.6s-1,0.2-1.3,0.6
		c-0.4,0.4-0.6,0.8-0.6,1.3v19.2c0,0.5,0.2,1,0.6,1.3c0.4,0.4,0.8,0.6,1.3,0.6h10.4c0.5,0,1-0.2,1.3-0.6c0.4-0.4,0.5-0.8,0.5-1.3
		s-0.2-1-0.5-1.3C194.8,235.6,194.4,235.4,193.8,235.4z"/>
	<path class="st0" d="M250.9,227.7c0-3.1-1.1-5.8-3.3-8.1c-2.2-2.2-4.9-3.3-8.1-3.3h-4.8c-0.5,0-1,0.2-1.3,0.5
		c-0.4,0.4-0.6,0.8-0.6,1.3v19.2c0,0.5,0.2,1,0.6,1.3c0.4,0.4,0.8,0.5,1.3,0.5l0,0l4.8-0.1c3.2,0,5.9-1.1,8.1-3.4
		C249.8,233.6,250.9,230.9,250.9,227.7z M244.9,233.1c-1.5,1.5-3.3,2.2-5.4,2.2h-2.9V220h2.9c2.1,0,3.9,0.7,5.4,2.3
		c1.5,1.5,2.2,3.3,2.2,5.4C247.1,229.8,246.4,231.6,244.9,233.1z"/>
	<path class="st0" d="M295.7,225.9L295.7,225.9c-1.6,0-2.7-0.4-3.4-1.1c-0.4-0.4-0.6-1-0.6-1.5c0-0.9,0.4-1.7,1.1-2.3
		s1.6-0.9,2.6-0.9s1.9,0.2,2.6,0.5c0.9,0.4,1.4,1,1.6,1.7c0.1,0.5,0.4,0.9,0.9,1.2c0.3,0.2,0.6,0.3,0.9,0.3c0.2,0,0.3,0,0.5-0.1
		c0.5-0.1,0.9-0.4,1.1-0.9c0.3-0.4,0.3-0.9,0.2-1.4c-0.4-1.7-1.5-3-3.2-3.9c-1.4-0.7-2.9-1.1-4.7-1.1c-2,0-3.7,0.7-5.2,2
		c-1.4,1.3-2.2,2.9-2.3,4.9c-0.1,1.6,0.5,3,1.6,4.2c1.4,1.5,3.4,2.2,6,2.2h0.1c1.6,0,2.7,0.4,3.3,1.1c0.4,0.4,0.6,0.9,0.6,1.5
		c0,0.9-0.4,1.7-1.1,2.3s-1.6,0.9-2.6,0.9s-1.9-0.2-2.6-0.5c-0.9-0.4-1.4-1-1.6-1.7c-0.1-0.5-0.4-0.9-0.9-1.1
		c-0.3-0.2-0.6-0.3-0.9-0.3c-0.2,0-0.3,0-0.5,0.1c-0.5,0.1-0.9,0.4-1.1,0.9c-0.3,0.4-0.3,0.9-0.2,1.4c0.4,1.7,1.5,3,3.1,3.9
		c1.4,0.7,2.9,1.1,4.7,1.1c2,0,3.7-0.7,5.2-2c1.4-1.3,2.2-2.9,2.3-4.8c0.1-1.6-0.5-3-1.6-4.2C300.4,226.7,298.4,225.9,295.7,225.9z"
		/>
</g>
</svg>
