<?xml version="1.0" encoding="utf-8"?>
<!-- Generator: Adobe Illustrator 21.0.2, SVG Export Plug-In . SVG Version: 6.00 Build 0)  -->
<svg version="1.1" id="Layer_1" xmlns="http://www.w3.org/2000/svg" xmlns:xlink="http://www.w3.org/1999/xlink" x="0px" y="0px"
	 viewBox="0 0 2048 1024" style="enable-background:new 0 0 2048 1024;" xml:space="preserve">
<style type="text/css">
	.st0{fill:#FFFFFF;}
</style>
<g>
	<path class="st0" d="M1169.5,517.9c0-13.1-6.2-21.9-12.9-28.6c-3.2-3.2-6.5-9.3-10.1-13.8c0.3,0,0.5,0,0.7,0
		c9.4,0,10.7,13.8,22.3,14.1c1.9,0,3-0.4,3.6-1.3c1.2-1.6,0.4-4.7-1.5-8.3c-2.7-13.2-7-25.7-12.7-37.4
		c-25.6-52.6-79.6-88.8-142-88.8c-10.1,0-19.9,0.9-29.5,2.8c0.8,1.5,12.7,2.4,18.9,1.2c9.4-1.9,58.1,11.4,65.8,21.6
		c7.7,10.2,3.9,11.4-7.5,9.3c-11.4-2-4.4,14.3-4.4,21.2c0,5.1,5.2,11,10.4,13.7h0c1.9,1,3.8,1.5,5.4,1.5c1,0,1.7-0.1,2.2-0.4
		c2.9-1.5-0.8-6.9-3.9-12.2c-3.7-6.2-3.8-11.2,3-4.4c6.8,6.8,8.2,10.1,10.8,13.7c2.2,3,17.5,19.2,21.7,32.4c1.3,4.2,2,8.6,2,13
		c0,0.9,0,1.8-0.1,2.6c6.3-1.1,15-5.8,5.6-15.2c-10.9-10.9-3.7-24.6,3.2-24.6c6.9,0,10.4,7.9,6.6,11.7c-3.9,3.9-6.9,18,4,18
		c5.8,0,5.2,5.8,5.4,10.6c-1.1,0.4-2.2,1.1-3.3,2.2c-8,8-6,6-22.7,5.3c-0.2,0.8-0.4,1.6-0.6,2.3c0,0.1,0,0.1-0.1,0.2
		c-0.4,1.1-0.7,2.1-1.1,3c-0.6,1.6-1.3,3.1-2.2,4.6c1.3,2.4,2.4,5,3.2,7.7c0,0,0,0,0,0c1.1,3.6,1.7,7.3,1.9,11
		c4.9,0.6,9.4,2.7,13.1,6.1c4.6,4.3,7.2,10.4,7.2,16.7c0,1.3-0.1,2.5-0.4,3.8c-0.8,4.9-3.3,9.5-6.9,12.9c-1.4,1.3-2.9,2.4-4.5,3.3
		c-0.1,0.1-0.3,0.1-0.4,0.2c-3.3,1.8-7,2.7-10.8,2.7h-0.3c-0.4,0-0.7,0-1,0c-9.7-0.4-18.7-3.9-26.1-10.1c-0.1-0.1-0.2-0.2-0.3-0.3
		c0,0-0.1-0.1-0.1-0.1c-6.3-5.3-10.9-12.3-13.4-20.2c-0.5-1.7-0.9-7.6-2.4-9.8c-1.6-2.4-4.2-1-4.2-1c-0.8,1.6-1.7,3.1-2.4,4.6
		c-5.4,11.8-2.8,6.4,5.2,32.6c8.2,26.9,28.3,28.6,27.2,22.5v-3c0-3.6,1.4-7.1,4-9.7c2.6-2.6,6-4,9.7-4h4.8c6.3,0,11.9,2.3,16.4,6.8
		c0,0,0,0,0,0c4.4,4.5,6.8,10.1,6.8,16.4c0,6.3-2.3,12-6.8,16.4c-0.9,0.9-1.9,1.7-2.9,2.5c-3.2,8.8-6.9,23.4-7.8,29.9
		c-0.3,2.1,2.6,1.8,2.6,1.8c9.1-2.1,2.9-2.5,12.5-12.1c4.4-4.4,10.9-14.9,17-26c-0.4-0.9-0.5-2-0.7-2.9c0,0,0-0.1,0-0.1
		c-0.7-2.8-0.5-5.6,0.4-8.2c-0.6-2-1-4.1-0.8-6.3c0.2-5.1,2.3-9.6,6.1-13c2.7-2.5,5.9-4.1,9.4-4.7
		C1163.7,545.4,1169.5,529.2,1169.5,517.9z"/>
	<path class="st0" d="M975.5,393.8c0,3.1,1.9,12.5-4.2,13.2c-6.2,0.6,5.5,14.8,8.9,11.4c0.6-0.6,7.4-5.7,7.4-15.2
		c0-9.5,0.6-14.5-3.7-14.5C979.5,388.8,975.5,390.7,975.5,393.8z"/>
	<path class="st0" d="M1001.3,374.9c-5.9,5.9-13.1,0-8.8,6.9c4.3,6.9,12.9,3.6,9.4,10.1c-2.8,5.3-11.5,20.4-5.3,26.5
		c1.3,1.3,3.3,2.2,6.2,2.5c0.5,0.1,1.4-0.9,2.6-2.5c3.9-5,10.9-15.8,17.8-15.8c9,0,11.2-17.4,5.6-23
		C1023.2,374,1007.2,369,1001.3,374.9z"/>
	<path class="st0" d="M1032.1,415.5c1.8,0,6-6.5,3-6.5c-3,0-7.6,0.1-7.6,3.3C1027.5,415.4,1028.2,415.5,1032.1,415.5z"/>
	<path class="st0" d="M1010.3,600.4c-4.5-3.4-14.6-6.3-21.5-7.9c-3.4-0.7-5.2-1.6-6.1-2c-2-0.9-4-4.2-9.1-1.8
		c-1.9,0.9-4.8,3.4-6.4,5c-4.5,4.5-10.2,6.8-16.5,6.8c-6.3,0-12-2.4-16.4-6.8c-4.5-4.5-6.8-10.1-6.8-16.4c0-6.3,2.4-12,6.8-16.4
		c1.4-1.4,3.1-1.1,3.7-3c0.5-2.4-2.8-4-3.4-4.6c-10.5-10.5-15.2-13.5-28.1-13.5c-7.7,0-14.4,12.9-11.9,15.7c1.1,0.8,2,0.2,2.2,0.1
		c0.1,0,0.1-0.1,0.2-0.1l0.7-0.3c1.6-0.8,3.3-1.1,5.1-1.1c1.3,0,2.6,0.2,3.8,0.6l0.7,0.3c0.1,0,0.2,0.1,0.3,0.1
		c3.4,1.2,6.1,3.7,7.6,6.9c1.6,3.3,1.8,6.9,0.6,10.4l-6.6,18.8c-0.2,0.7-0.5,1.3-0.8,1.9c-0.2,0.4-0.4,0.7-0.6,1.1
		c-0.2,0.3-0.4,0.6-0.6,0.9c-0.1,0.1-0.3,0.3-0.3,0.4c-2,5.6,14.6,8.2,14.6,14.3c0,6.8,8.3,25.4,14.1,37.4c3,6.3,5.3,10.7,5.3,10.7
		c4,8.2,22.1,20.8,17,4.5c-0.6-1.8-0.9-3.3-1-4.5c-1.2-10.8,10.4-7.1,14.8-11.6c4.9-4.9,8.6-10.1,22.1-13.1
		c13.5-3-3.9-16.3,14.2-24.7C1013.8,605.6,1013.5,602.8,1010.3,600.4z"/>
	<path class="st0" d="M895.6,539.6h0.1C895.7,539.6,895.7,539.6,895.6,539.6c-0.4-1.1-5.1-11,0.1-19.8c5.5-9.2-10.2-3.2-7.8-8.2
		c2.4-4.9,12.2-12.5,4.4-14c-7.8-1.5-17.5-0.6-10.8-10.9c6.7-10.3,11-14,24.7-7.7c3.7,1.7,6.9,2.4,9.6,2.5v-14.3c0-0.1,0-0.2,0-0.3
		c0-4.3,0.7-8.6,2-12.8c0,0,0-0.1,0-0.1c0.6-1.8,1.2-3.5,2-5.1c4.4-9.6,12.1-17.2,21.6-21.6c2-0.9,4-1.7,6.1-2.3
		c-8.3-3.7-9.1-18.1-1.3-20.5c8.6-2.6,21.5,1.1,21.5-5.8c0-6.9-11.6-20.2-8.4-23.4c3.2-3.2,23.2-12.5,15.9-15.9
		c-0.1,0-0.2-0.1-0.3-0.1c-9.9,2.7-19.5,6.4-28.6,11c0.3,3.5,0.1,7.1-2.5,9.7c-4.7,4.7-61.4,42.6-61.4,68.4
		c0,25.8-7.9,14.2-7.9,25.4C874.4,485.2,878.8,539.3,895.6,539.6z"/>
	<path class="st0" d="M1068.2,499.2c5.3,0,9.6,4.3,9.6,9.5c0,3.3,0.5,6.5,1.4,9.6c1.8,5.8,5.2,10.9,9.8,14.8
		c0.1,0.1,0.2,0.2,0.3,0.3c5.2,4.4,11.9,7.1,19.2,7.4c0.1,0,0.3,0,0.4,0h0.3c1.9,0,3.7-0.5,5.3-1.3c0,0,0,0,0,0
		c0.9-0.5,1.7-1,2.4-1.7c1.7-1.6,3-3.8,3.4-6.3c0.1-0.6,0.2-1.2,0.2-1.9c0-3.2-1.4-6.1-3.5-8.2c-2-1.9-4.7-3-7.7-3h0.5
		c-5.3,0-9.5-4.3-9.5-9.6c0-3.3-0.5-6.5-1.4-9.5c-1.3-4.2-3.4-8-6.2-11.2c2.3-2.7,4.1-5.7,5.4-9c0.2-0.4,0.3-0.8,0.4-1.2
		c0.1-0.3,0.2-0.7,0.4-1c0.9-3,1.4-6.2,1.4-9.6c0-0.3,0-0.6,0-0.9c0-0.1,0-0.1,0-0.1c0-0.2,0-0.3,0-0.5c0-0.1,0-0.2,0-0.3
		c0-0.4-0.1-0.9-0.1-1.3c0-0.1,0-0.1,0-0.2c0-0.1,0-0.3,0-0.4c0-0.3-0.1-0.7-0.1-1c0,0,0-0.1,0-0.1c0,0,0,0,0,0
		c0-0.3-0.1-0.5-0.1-0.7c0-0.2-0.1-0.5-0.1-0.7c0,0,0,0,0-0.1c0,0,0,0,0-0.1c0,0,0-0.1,0-0.1c-0.1-0.5-0.2-1-0.3-1.5
		c-0.1-0.2-0.1-0.4-0.2-0.6c-0.1-0.3-0.2-0.6-0.3-0.9c-0.1-0.4-0.3-0.8-0.4-1.2c-0.1-0.4-0.3-0.7-0.4-1.1c-0.1-0.3-0.2-0.6-0.4-0.8
		c0,0,0,0,0,0c0-0.1-0.1-0.1-0.1-0.2c0-0.1-0.1-0.1-0.1-0.2c-0.1-0.2-0.2-0.4-0.3-0.6c-0.1-0.3-0.3-0.7-0.5-1
		c-0.1-0.3-0.3-0.6-0.4-0.8c-0.1-0.3-0.3-0.5-0.5-0.8c-0.2-0.4-0.4-0.7-0.7-1.1c-0.2-0.3-0.4-0.6-0.6-0.9c-0.3-0.4-0.5-0.7-0.8-1.1
		c-0.2-0.3-0.5-0.7-0.8-1c-0.2-0.2-0.3-0.4-0.5-0.6c-0.1-0.1-0.2-0.2-0.3-0.3c0,0,0-0.1-0.1-0.1c-0.2-0.2-0.4-0.5-0.7-0.7
		c-0.3-0.3-0.7-0.7-1-1c-0.2-0.2-0.5-0.5-0.8-0.7c-0.1-0.1-0.2-0.2-0.3-0.3c-0.3-0.2-0.5-0.5-0.8-0.7c-0.3-0.3-0.7-0.5-1-0.8
		c0,0,0,0,0,0c-0.3-0.3-0.7-0.5-1-0.7c0,0,0,0,0,0c0,0-0.1,0-0.1-0.1c-0.3-0.2-0.5-0.4-0.8-0.5c-0.7-0.4-1.4-0.9-2.1-1.2
		c-0.2-0.1-0.4-0.2-0.6-0.3c0,0-0.1,0-0.1-0.1c-0.2-0.1-0.5-0.2-0.7-0.4c-0.2-0.1-0.5-0.2-0.7-0.3c-0.2-0.1-0.4-0.2-0.6-0.3
		c-1.3-0.5-2.6-1-4-1.3c-0.3-0.1-0.7-0.2-1-0.3c-0.4-0.1-0.8-0.2-1.2-0.3c-0.1,0-0.1,0-0.2,0c-0.4-0.1-0.7-0.1-1.1-0.2
		c-0.1,0-0.3,0-0.4-0.1c-0.2,0-0.4-0.1-0.6-0.1c-0.2,0-0.4,0-0.6-0.1c0,0,0,0,0,0h0c-0.2,0-0.4,0-0.6-0.1c-0.2,0-0.4,0-0.6,0
		c0,0-0.1,0-0.1,0c-0.1,0-0.1,0-0.2,0c-0.1,0-0.3,0-0.4,0c-0.4,0-0.9,0-1.3,0H959.5c-4.7,0-9.2,1-13.3,2.9
		c-7,3.2-12.6,8.8-15.8,15.8c-0.6,1.2-1,2.4-1.4,3.7c-0.9,3-1.4,6.2-1.4,9.5h0v41.5c0,3.3,0.5,6.5,1.4,9.6c0.4,1.3,0.9,2.5,1.4,3.7
		c3.2,7,8.8,12.6,15.8,15.8c4,1.9,8.5,2.9,13.3,2.9h15.8c3.3,0,6.5-0.5,9.6-1.5c0.5-0.1,1-0.3,1.5-0.5c4.5-1.6,8.5-4.2,11.7-7.6
		c0.2-0.2,0.4-0.4,0.5-0.5c0.1-0.2,0.3-0.3,0.4-0.5c0.1-0.1,0.2-0.2,0.3-0.3c0.4-0.4,0.7-0.8,1-1.3c0.1-0.1,0.1-0.2,0.2-0.3
		c0.3-0.4,0.6-0.8,0.9-1.2c0.1-0.1,0.2-0.3,0.3-0.4c0.2-0.4,0.5-0.7,0.7-1.1c0.1-0.1,0.2-0.3,0.2-0.4c0.6-1,1.2-2.1,1.7-3.2
		c0-0.1,0.1-0.2,0.1-0.3c0.2-0.5,0.4-1,0.6-1.5c0-0.1,0.1-0.1,0.1-0.2c0.2-0.6,0.4-1.2,0.6-1.8c0.9-3,1.4-6.2,1.4-9.6v-1.6
		c0-0.8-0.1-1.7-0.3-2.5c0,0,0-0.1,0-0.1c-0.1-0.5-0.3-1-0.4-1.4c-0.5-1.2-1.1-2.4-2-3.4c-0.2-0.2-0.4-0.4-0.5-0.6
		c-1-1.1-2.3-1.9-3.7-2.5c-1.3-0.5-2.7-0.8-4.2-0.8c-3.1,0-5.9,1.3-7.9,3.3c-1.1,1.1-2,2.5-2.6,3.9c-0.4,1.1-0.7,2.4-0.7,3.7
		c0,0.1,0,0.2,0,0.3c0,0.1,0,0.2,0,0.3v1.4c0,5.3-4.3,9.6-9.6,9.6h-15.8c-5.3,0-9.6-4.3-9.6-9.6v-11c0,0,0,0,0,0v-30.5
		c0-5.3,4.3-9.5,9.5-9.5h108.7c0.1,0,0.3,0,0.4,0c0.1,0,0.3,0,0.4,0c0.1,0,0.1,0,0.1,0c0.3,0,0.5,0.1,0.8,0.1c0.3,0,0.5,0.1,0.8,0.2
		c0,0,0.1,0,0.1,0c0.1,0,0.3,0.1,0.4,0.1c0.1,0,0.2,0.1,0.4,0.1c0.2,0.1,0.5,0.2,0.7,0.3c0.3,0.1,0.5,0.3,0.8,0.4
		c0.5,0.3,0.9,0.6,1.3,1c0.1,0.1,0.3,0.2,0.4,0.3c0.1,0.1,0.1,0.1,0.2,0.2l0.2,0.2c0.2,0.2,0.5,0.5,0.7,0.8c0.1,0.1,0.2,0.3,0.3,0.4
		c0,0,0,0,0,0.1c0.2,0.3,0.3,0.5,0.5,0.8c0.1,0.2,0.2,0.3,0.2,0.5c0.1,0.1,0.1,0.3,0.2,0.5c0.1,0.1,0.1,0.3,0.2,0.5
		c0.1,0.2,0.1,0.3,0.2,0.5c0,0.1,0.1,0.3,0.1,0.4c0,0,0,0,0,0c0,0,0,0.1,0,0.1c0,0.2,0.1,0.3,0.1,0.5c0,0.1,0,0.3,0.1,0.4
		c0,0,0,0.1,0,0.1c0,0.4,0.1,0.7,0.1,1.1c0,0.2,0,0.4,0,0.5c0,0.3,0,0.5-0.1,0.8c0,0.1,0,0.2-0.1,0.3c0,0.1,0,0.2-0.1,0.3
		c0,0.1-0.1,0.3-0.1,0.4c-0.1,0.2-0.1,0.4-0.2,0.6c0,0,0,0,0,0.1c-0.1,0.2-0.1,0.4-0.2,0.6c-0.1,0.2-0.1,0.3-0.2,0.5
		c0,0.1-0.1,0.1-0.1,0.2c0,0,0,0,0,0c-0.1,0.2-0.2,0.3-0.3,0.5c-0.1,0.1-0.1,0.2-0.2,0.3c0,0,0,0,0,0.1c-0.5,0.7-1,1.4-1.7,2
		c-0.2,0.2-0.4,0.4-0.6,0.5c-0.2,0.1-0.4,0.3-0.6,0.4c-0.1,0.1-0.2,0.1-0.3,0.2c-0.2,0.1-0.4,0.2-0.6,0.3h0
		c-0.2,0.1-0.4,0.2-0.6,0.3c-0.1,0.1-0.3,0.1-0.4,0.1c-0.1,0-0.3,0.1-0.4,0.1c-0.3,0.1-0.6,0.2-0.9,0.2c-0.3,0.1-0.5,0.1-0.8,0.1
		c0,0-0.1,0-0.1,0c-0.2,0-0.3,0-0.5,0c-0.1,0-0.2,0-0.4,0h-32c-6.2,0-11.2,5-11.2,11.2c0,6.2,5,11.2,11.2,11.2h1.5c0,0,0,0,0,0
		H1068.2z"/>
	<path class="st0" d="M904.7,566.9c-0.1-0.1-0.1-0.2-0.2-0.3c-0.2-0.3-0.5-0.5-0.9-0.6c-0.5-0.2-0.7-0.3-0.7-0.3l0,0
		c0,0-0.1,0-0.2,0.1c-0.1,0.1-0.3,0.1-0.5,0.3c-0.5,0.2-0.8,0.6-1,1.1l-1.3,3.7l-3.7,10.4l-0.5-1.3l-4.5-12.8v0c0,0,0,0,0-0.1
		c0,0,0,0,0-0.1l0,0l0,0l0-0.1c-0.1-0.2-0.2-0.3-0.3-0.4c-0.1-0.1-0.3-0.3-0.5-0.3l-0.1,0l-0.1,0c0,0-0.1,0-0.1,0h0h0v0h0
		c0,0,0,0,0,0c-0.1,0-0.1,0-0.1,0l0,0l0,0c-0.1,0-0.1,0-0.1,0h-0.1c0,0,0,0,0,0c0,0-0.1,0-0.1,0h-0.3c-0.1,0-0.1,0-0.1,0
		c0,0,0,0,0,0s0,0,0,0c0,0,0,0,0,0c0,0-0.1,0-0.1,0c0,0-0.1,0-0.1,0c0,0-0.1,0-0.1,0c0,0,0,0,0,0c0,0,0,0-0.1,0l-0.1,0c0,0,0,0,0,0
		c-0.2,0.1-0.3,0.2-0.5,0.4c-0.1,0.1-0.2,0.3-0.3,0.4c0,0,0,0.1,0,0.1c0,0,0,0,0,0l0,0h0c0,0,0,0,0,0l0,0v0c0,0,0,0,0,0.1
		c0,0,0,0.1,0,0.1v0l-4.9,14.1l-4.9-14.1c-0.2-0.5-0.5-0.8-1-1.1c-0.3-0.1-0.5-0.2-0.8-0.2c-0.2,0-0.4,0-0.6,0.1
		c-0.5,0.2-0.8,0.5-1.1,1c-0.2,0.5-0.2,1-0.1,1.4l6.7,19.2l0,0c0,0.1,0.1,0.1,0.1,0.2c0,0,0,0,0,0.1c0,0.1,0.1,0.1,0.1,0.2l0,0
		c0.1,0.1,0.1,0.1,0.2,0.2c0,0,0,0,0,0c0.1,0.1,0.1,0.1,0.2,0.2c0,0,0,0,0,0c0,0,0,0,0,0c0.1,0,0.1,0.1,0.2,0.1c0,0,0,0,0,0
		c0.1,0,0.1,0.1,0.2,0.1l0,0h0c0.1,0,0.1,0,0.2,0.1c0,0,0.1,0,0.1,0c0,0,0,0,0,0c0.1,0,0.2,0,0.3,0c0.1,0,0.2,0,0.3,0c0,0,0,0,0,0
		s0,0,0.1,0c0.1,0,0.1,0,0.2,0c0,0,0,0,0,0c0,0,0,0,0,0c0.1,0,0.1-0.1,0.2-0.1c0,0,0,0,0,0c0.1,0,0.1-0.1,0.2-0.1c0,0,0.1,0,0.1,0
		c0.1-0.1,0.1-0.1,0.2-0.2c0,0,0,0,0,0c0,0,0,0,0,0c0.1-0.1,0.1-0.1,0.2-0.2c0,0,0,0,0,0c0,0,0,0,0,0h0v0c0-0.1,0.1-0.1,0.1-0.2
		c0,0,0,0,0-0.1c0-0.1,0.1-0.2,0.1-0.2v0l4.9-14.1l4.9,14.1v0c0,0.1,0.1,0.1,0.1,0.2c0,0,0,0,0,0.1c0,0.1,0.1,0.1,0.1,0.2l0,0
		c0,0.1,0.1,0.1,0.1,0.2c0,0,0,0,0.1,0c0.1,0.1,0.1,0.1,0.2,0.2l0,0c0,0,0,0,0,0c0.1,0,0.1,0.1,0.2,0.1l0,0c0.1,0,0.1,0.1,0.2,0.1
		c0,0,0,0,0,0c0.1,0,0.1,0,0.2,0.1c0,0,0.1,0,0.1,0c0.1,0,0.2,0,0.3,0c0.1,0,0.2,0,0.3,0c0,0,0,0,0,0l0,0c0,0,0,0,0.1,0
		c0,0,0.1,0,0.1,0c0,0,0.1,0,0.1,0c0,0,0,0,0,0c0,0,0,0,0,0c0.1,0,0.1-0.1,0.2-0.1c0,0,0,0,0,0c0.1,0,0.1-0.1,0.2-0.1
		c0,0,0.1,0,0.1,0c0.1-0.1,0.1-0.1,0.2-0.1c0,0,0,0,0,0c0,0,0,0,0,0c0.1-0.1,0.1-0.1,0.1-0.2c0,0,0,0,0-0.1c0.1-0.1,0.1-0.1,0.1-0.2
		c0,0,0,0,0-0.1c0-0.1,0.1-0.2,0.1-0.2v0v0l6.7-19.2c0-0.1,0.1-0.2,0.1-0.4c0-0.1,0-0.2,0-0.4c0-0.2,0-0.3-0.1-0.5
		C904.8,567,904.8,566.9,904.7,566.9z"/>
	<path class="st0" d="M958.9,585.4c2.2-2.2,3.4-4.9,3.4-8.1c0-0.8-0.1-1.5-0.2-2.2c-0.4-2.2-1.5-4.2-3.2-5.9c-2.2-2.2-5-3.4-8.1-3.4
		c-0.2,0-0.4,0-0.5,0c-2.9,0.1-5.5,1.2-7.6,3.3c-2.2,2.2-3.4,5-3.4,8.1c0,3.2,1.1,5.9,3.4,8.1c2.2,2.2,4.9,3.4,8.1,3.4
		S956.7,587.6,958.9,585.4z M943.1,577.2c0-2.1,0.7-3.9,2.3-5.4c1.5-1.5,3.3-2.3,5.4-2.3c2.1,0,3.9,0.7,5.5,2.3
		c1.5,1.5,2.3,3.3,2.3,5.4c0,2.1-0.7,3.9-2.3,5.4c-1.5,1.5-3.3,2.3-5.5,2.3c-2.1,0-3.9-0.7-5.4-2.3
		C943.8,581.2,943.1,579.4,943.1,577.2z"/>
	<path class="st0" d="M1013.6,576.2c0.9-1.1,1.3-2.4,1.3-3.8c0-1.8-0.7-3.4-2.1-4.7c-1.4-1.3-3.1-1.9-5-1.9h-6.6
		c-0.5,0-1,0.2-1.3,0.6c-0.4,0.4-0.5,0.8-0.5,1.3v19.1c0,0.5,0.2,1,0.5,1.3c0.4,0.4,0.8,0.5,1.3,0.5c0.5,0,1-0.2,1.3-0.5
		c0.4-0.4,0.6-0.8,0.6-1.3v-7.6h3.3l4.2,8.6c0.3,0.7,0.9,1,1.7,1c0.3,0,0.6-0.1,0.8-0.2c0.5-0.2,0.8-0.6,0.9-1.1
		c0.2-0.5,0.1-1-0.1-1.4l-3.6-7.4C1011.7,578.2,1012.8,577.4,1013.6,576.2z M1010.2,574.4c-0.6,0.6-1.4,0.8-2.3,0.9h-4.9v-5.8h4.7
		c0.9,0,1.7,0.3,2.4,0.8c0.7,0.6,1,1.3,1,2.1C1011.2,573.2,1010.9,573.9,1010.2,574.4z"/>
	<path class="st0" d="M1064.2,584.9h-8.5v-17.3c0-0.5-0.2-1-0.6-1.3c-0.4-0.4-0.8-0.6-1.3-0.6c-0.5,0-1,0.2-1.3,0.6
		c-0.4,0.4-0.6,0.8-0.6,1.3v19.2c0,0.5,0.2,1,0.6,1.3c0.4,0.4,0.8,0.6,1.3,0.6h10.4c0.5,0,1-0.2,1.3-0.6c0.4-0.4,0.5-0.8,0.5-1.3
		c0-0.5-0.2-1-0.5-1.3C1065.2,585.1,1064.8,584.9,1064.2,584.9z"/>
	<path class="st0" d="M1121.3,577.2c0-3.1-1.1-5.8-3.3-8.1c-2.2-2.2-4.9-3.3-8.1-3.3h-4.8c-0.5,0-1,0.2-1.3,0.5
		c-0.4,0.4-0.6,0.8-0.6,1.3v19.2c0,0.5,0.2,1,0.6,1.3c0.4,0.4,0.8,0.5,1.3,0.5h0l4.8-0.1c3.2,0,5.9-1.1,8.1-3.4
		C1120.2,583.1,1121.3,580.4,1121.3,577.2z M1115.3,582.6c-1.5,1.5-3.3,2.2-5.4,2.2l-2.9,0v-15.3h2.9c2.1,0,3.9,0.7,5.4,2.3
		c1.5,1.5,2.2,3.3,2.2,5.4C1117.5,579.3,1116.8,581.1,1115.3,582.6z"/>
	<path class="st0" d="M1166.1,575.4L1166.1,575.4c-1.6,0-2.7-0.4-3.4-1.1c-0.4-0.4-0.6-1-0.6-1.5c0-0.9,0.4-1.7,1.1-2.3
		c0.7-0.6,1.6-0.9,2.6-0.9c1,0,1.9,0.2,2.6,0.5c0.9,0.4,1.4,1,1.6,1.7c0.1,0.5,0.4,0.9,0.9,1.2c0.3,0.2,0.6,0.3,0.9,0.3
		c0.2,0,0.3,0,0.5-0.1c0.5-0.1,0.9-0.4,1.1-0.9c0.3-0.4,0.3-0.9,0.2-1.4c-0.4-1.7-1.5-3-3.2-3.9c-1.4-0.7-2.9-1.1-4.7-1.1
		c-2,0-3.7,0.7-5.2,2c-1.4,1.3-2.2,2.9-2.3,4.9c-0.1,1.6,0.5,3,1.6,4.2c1.4,1.5,3.4,2.2,6,2.2h0.1c1.6,0,2.7,0.4,3.3,1.1
		c0.4,0.4,0.6,0.9,0.6,1.5c0,0.9-0.4,1.7-1.1,2.3c-0.7,0.6-1.6,0.9-2.6,0.9c-1,0-1.9-0.2-2.6-0.5c-0.9-0.4-1.4-1-1.6-1.7
		c-0.1-0.5-0.4-0.9-0.9-1.1c-0.3-0.2-0.6-0.3-0.9-0.3c-0.2,0-0.3,0-0.5,0.1c-0.5,0.1-0.9,0.4-1.1,0.9c-0.3,0.4-0.3,0.9-0.2,1.4
		c0.4,1.7,1.5,3,3.1,3.9c1.4,0.7,2.9,1.1,4.7,1.1c2,0,3.7-0.7,5.2-2c1.4-1.3,2.2-2.9,2.3-4.8c0.1-1.6-0.5-3-1.6-4.2
		C1170.8,576.2,1168.8,575.4,1166.1,575.4z"/>
</g>
</svg>
